<?xml version="1.0" encoding="utf-8"?>
<!-- Generator: Adobe Illustrator 19.0.0, SVG Export Plug-In . SVG Version: 6.00 Build 0)  -->
<svg version="1.1" id="Layer_1" xmlns="http://www.w3.org/2000/svg" xmlns:xlink="http://www.w3.org/1999/xlink" x="0px" y="0px"
	 viewBox="0 0 578 562" style="enable-background:new 0 0 578 562;" xml:space="preserve">
<style type="text/css">
	.st0{fill:#353535;}
	.st1{fill:none;}
</style>
<path class="st0" d="M485.3,547.2C426.6,489.3,368,431.5,309.5,373.8c-49.3,28.9-101.5,36.6-156.5,21.4
	c-46-12.7-82.6-39.4-109.5-78.8c-54.1-79.3-42.8-185.6,25.5-252C139.3-3.8,247-9.1,323.1,46.9c78.9,58,104.9,167.5,54.1,257
	c58.8,58,117.7,116.1,176.8,174.4c10.1,10,10.1,26.4,0,36.4l-33,32.5C511.2,557,495.2,557,485.3,547.2z M81.5,205.4
	c0,68.7,55.7,124.7,123.6,125.2c69.3,0.5,126.2-55.4,126.3-124.8c0.1-69.1-55.9-125.1-125.1-125.1C137.4,80.7,81.5,136.6,81.5,205.4
	z"/>
<path class="st1" d="M81.5,205.4c0-68.8,55.9-124.8,124.8-124.8c69.1,0,125.2,56.1,125.1,125.1c-0.1,69.5-57,125.3-126.3,124.8
	C137.2,330.1,81.5,274.1,81.5,205.4z"/>
</svg>
